<svg width="20" height="20" fill="none" xmlns="http://www.w3.org/2000/svg">
    <path fill-rule="evenodd" clip-rule="evenodd" d="M8.24 9.25c-2.27 0-2.73-3.44-2.73-3.44C5.24 4.02 6.06 2 8.21 2c2.16 0 2.98 2.02 2.71 3.81 0 0-.41 3.44-2.68 3.44zm0 2.57L10.96 10c2.39 0 4.52 2.33 4.52 4.53v2.49s-3.65 1.13-7.24 1.13C4.59 18.15 1 17.02 1 17.02v-2.49c0-2.25 1.94-4.48 4.47-4.48l2.77 1.77z" fill="#242748"/>
    <path d="M16 2c-2.2132 0-4 1.7868-4 4s1.7868 4 4 4 4-1.7868 4-4-1.7868-4-4-4zm1.6041 4.6091H16c-.3452 0-.6294-.2842-.6294-.6294V3.9492c0-.3451.2842-.6294.6294-.6294.3452 0 .6294.2843.6294.6294v1.401h.9747c.3451 0 .6294.2843.6294.6295 0 .3452-.2843.6294-.6294.6294z" fill="#242748"/>
    <mask id="maskUserRegistrationPending" maskUnits="userSpaceOnUse" x="1" y="2" width="15" height="17">
        <path fill-rule="evenodd" clip-rule="evenodd" d="M8.24 9.25c-2.27 0-2.73-3.44-2.73-3.44C5.24 4.02 6.06 2 8.21 2c2.16 0 2.98 2.02 2.71 3.81 0 0-.41 3.44-2.68 3.44zm0 2.57L10.96 10c2.39 0 4.52 2.33 4.52 4.53v2.49s-3.65 1.13-7.24 1.13C4.59 18.15 1 17.02 1 17.02v-2.49c0-2.25 1.94-4.48 4.47-4.48l2.77 1.77z" fill="#fff"/>
    </mask>
    <g mask="url(#maskUserRegistrationPending)">
        <path fill="#242748" d="M0 0h22.2502v21.0112H0z"/>
    </g>
</svg>